<?xml version="1.0" encoding="utf-8"?>
<!-- Generator: Adobe Illustrator 26.0.1, SVG Export Plug-In . SVG Version: 6.00 Build 0)  -->
<svg version="1.1" id="Layer_1" xmlns="http://www.w3.org/2000/svg" xmlns:xlink="http://www.w3.org/1999/xlink" x="0px" y="0px"
	 viewBox="0 0 1000 905.51" style="enable-background:new 0 0 1000 905.51;" xml:space="preserve">
<style type="text/css">
	.st0{fill:#FFFFFF;}
	.st1{fill:url(#SVGID_1_);}
	.st2{fill:url(#SVGID_00000117669901495303433190000008861555134109995416_);}
	.st3{fill:url(#SVGID_00000012447413367315873670000008529086799628109716_);}
	.st4{fill:url(#SVGID_00000126283923873294465470000003909085129216252077_);}
	.st5{fill:url(#SVGID_00000132779350266460102270000001110868113621838243_);}
	.st6{fill:url(#SVGID_00000011721648390991834100000004486127060074786446_);}
	.st7{fill:url(#SVGID_00000109735633739463865180000017099066619169892753_);}
	.st8{fill:url(#SVGID_00000033367975597167293810000010682507360129726617_);}
	.st9{fill:url(#SVGID_00000089551953314485547990000001717282517272098435_);}
	.st10{fill:url(#SVGID_00000097479996090911705470000001481531043567244928_);}
	.st11{fill:url(#SVGID_00000114064300647981303500000008132045596630633357_);}
	.st12{fill:url(#SVGID_00000132790464382994059890000003238023552193998483_);}
	.st13{fill:url(#SVGID_00000109725502278691946440000003104617370610305462_);}
	.st14{fill:url(#SVGID_00000013915289042273128250000006005874459439050377_);}
	.st15{fill:url(#SVGID_00000108292940389586220190000006149867028328995245_);}
	.st16{fill:url(#SVGID_00000109728301941091386900000007872256747007075775_);}
	.st17{fill:url(#SVGID_00000054267057194568220560000011209867040702621351_);}
	.st18{fill:url(#SVGID_00000096058685024087477970000012449567798907376805_);}
	.st19{fill:url(#SVGID_00000070089096144015801450000000498914991812879508_);}
	.st20{fill:url(#SVGID_00000072995642452376929740000013295984848555896452_);}
	.st21{fill:url(#SVGID_00000091014289774562620770000016604842115025984391_);}
	.st22{fill:url(#SVGID_00000122721968229920720940000005947643348344649862_);}
	.st23{fill:url(#SVGID_00000062884119916666809980000006813180913394368903_);}
	.st24{fill:url(#SVGID_00000153679871452030257620000014314837076869838979_);}
	.st25{fill:url(#SVGID_00000055665596175865080570000004861728135108391595_);}
	.st26{fill:url(#SVGID_00000152945207183614423220000008009250520479950977_);}
	.st27{fill:url(#SVGID_00000049194276485548176590000002759117673462857897_);}
	.st28{fill:url(#SVGID_00000010295873922510653940000002403886525608822926_);}
	.st29{fill:url(#SVGID_00000097502348646038590970000014652353346530629270_);}
	.st30{fill:url(#SVGID_00000169530062680790469820000007678802238378999211_);}
	.st31{fill:url(#SVGID_00000067957553330836457600000016482662183743437986_);}
	.st32{fill:url(#SVGID_00000065035341827066514200000004124265269126828475_);}
</style>
<g>
	<g>
		<g>
			<radialGradient id="SVGID_1_" cx="328.491" cy="737.087" r="1062.5753" gradientUnits="userSpaceOnUse">
				<stop  offset="0" style="stop-color:#B954EE"/>
				<stop  offset="1" style="stop-color:#000843"/>
			</radialGradient>
			<path class="st1" d="M465.06,648v130.96l-112.32,64.72c-29.24,16.83-61.24,24.96-92.15,24.89c-36.5,0-71.39-10.88-100.93-30.04
				c-29.46-19.08-53.91-46.73-68.78-80.68c-9.87-22.56-15.38-47.89-15.38-74.37V359.95l113.55-65.52v389.05
				c0,2.47,0.15,4.93,0.36,7.26c0.51,5.37,1.52,10.3,3.05,15.02c2.18,6.75,5.22,12.91,9.21,18.57
				c7.84,11.17,19.23,20.17,32.07,25.39c8.56,3.48,17.63,5.3,26.85,5.3c3.27,0,6.6-0.29,9.87-0.73v-0.29
				c6.82-0.29,13.79-2.18,20.03-5.8l93.52-53.98v0.44l48.32-27.79L465.06,648z"/>
			
				<radialGradient id="SVGID_00000049218441105171176880000002499943972520270265_" cx="328.491" cy="737.087" r="1062.5753" gradientUnits="userSpaceOnUse">
				<stop  offset="0" style="stop-color:#B954EE"/>
				<stop  offset="1" style="stop-color:#000843"/>
			</radialGradient>
			<path style="fill:url(#SVGID_00000049218441105171176880000002499943972520270265_);" d="M924.49,264.61v63.56
				c0,115.8-62.18,222.67-162.89,279.85l-95.27,54.05V531.55l39.18-22.27c65.16-37,105.42-106.15,105.42-181.1v-63.56
				c0-6.46-0.51-12.55-1.45-18.43v-0.07c-0.87-5.88-2.25-11.46-3.99-16.91c-3.48-10.81-8.49-20.75-14.8-29.75
				c-12.62-17.99-30.62-32.21-51.01-40.49c-13.64-5.59-28.15-8.49-42.88-8.49c-18.57,0-37.29,4.5-56.01,15.09l-18.14,10.3v514.06
				l-113.55,65.59v-1.89l-0.36,0.22V559.05h-0.15v-69.07l-124.58,71.9v81.92l-113.55,65.52V247.42l113.55-65.59v248.94l124.58-71.9
				V171.6c0-38.03,20.43-73.13,53.49-91.92l22.62-12.85c35.7-20.32,74.52-29.97,112.1-29.89c4.57,0,9.07,0.14,13.57,0.44
				c39.91,2.39,77.93,15.38,110.58,36.5c6.68,4.28,13.06,9,19.3,14c27.64,22.27,50.43,51.22,65.3,85.33
				C917.74,200.91,924.49,231.96,924.49,264.61z"/>
		</g>
		
			<radialGradient id="SVGID_00000005964329345322424830000015543575519435077772_" cx="560.5682" cy="732.9705" r="278.784" gradientUnits="userSpaceOnUse">
			<stop  offset="0" style="stop-color:#B954EE;stop-opacity:0"/>
			<stop  offset="1" style="stop-color:#000843"/>
		</radialGradient>
		<path style="fill:url(#SVGID_00000005964329345322424830000015543575519435077772_);" d="M622.68,687.58V529.82
			c0-47.09-51.04-76.47-91.76-52.81l-22.33,12.97v265.53L622.68,687.58z"/>
		
			<radialGradient id="SVGID_00000161602279990646515570000014631266933838068359_" cx="369.1436" cy="217.0505" r="259.6961" gradientUnits="userSpaceOnUse">
			<stop  offset="0" style="stop-color:#B954EE;stop-opacity:0"/>
			<stop  offset="1" style="stop-color:#000843"/>
		</radialGradient>
		<path style="fill:url(#SVGID_00000161602279990646515570000014631266933838068359_);" d="M270.5,252.25v138.25
			c0,47.09,51.04,76.47,91.76,52.81l22.33-12.97V184.33L270.5,252.25z"/>
		
			<radialGradient id="SVGID_00000076583555797544297160000004777242441033299388_" cx="361.7484" cy="675.3506" r="198.1516" gradientUnits="userSpaceOnUse">
			<stop  offset="0" style="stop-color:#B954EE;stop-opacity:0"/>
			<stop  offset="1" style="stop-color:#000843"/>
		</radialGradient>
		<path style="fill:url(#SVGID_00000076583555797544297160000004777242441033299388_);" d="M290.49,748.2
			c-6.24,3.63-13.21,5.51-20.03,5.8v0.29c-3.26,0.44-6.6,0.73-9.87,0.73c-9.21,0-18.28-1.81-26.85-5.3
			c-12.84-5.22-24.23-14.22-32.07-25.39c-3.99-5.66-7.04-11.83-9.21-18.57c-1.52-4.72-2.54-9.65-3.05-15.02v33.23h0.15
			c1.31,66.03,58.12,119.14,128.13,119.14c27.34,0,52.63-8.16,73.45-21.95l0.03,0.38l73.88-42.57V648L290.49,748.2z"/>
		
			<radialGradient id="SVGID_00000153679504074800546960000002608235173068231052_" cx="811.5461" cy="174.0517" r="215.0013" gradientUnits="userSpaceOnUse">
			<stop  offset="0" style="stop-color:#321C71;stop-opacity:0"/>
			<stop  offset="0.2689" style="stop-color:#2A196A;stop-opacity:0.2689"/>
			<stop  offset="0.6763" style="stop-color:#151157;stop-opacity:0.6763"/>
			<stop  offset="1" style="stop-color:#000843"/>
		</radialGradient>
		<path style="fill:url(#SVGID_00000153679504074800546960000002608235173068231052_);" d="M840.25,87.87l-30.76,158.24
			c-0.87-5.88-2.25-11.46-3.99-16.91c-3.48-10.81-8.49-20.75-14.8-29.75c-12.62-17.99-30.62-32.21-51.01-40.49
			c-13.64-5.59-28.15-8.49-42.88-8.49c-18.57,0-37.29,4.5-56.01,15.09l-18.14,10.3v-42.01c0-50.43,38.53-91.86,87.72-96.5
			c39.91,2.39,77.93,15.38,110.58,36.5C827.63,78.15,834.01,82.86,840.25,87.87z"/>
	</g>
</g>
</svg>
