<?xml version="1.0" encoding="utf-8"?>
<!-- Generator: Adobe Illustrator 26.0.1, SVG Export Plug-In . SVG Version: 6.00 Build 0)  -->
<svg version="1.1" id="Layer_1" xmlns="http://www.w3.org/2000/svg" xmlns:xlink="http://www.w3.org/1999/xlink" x="0px" y="0px"
	 viewBox="0 0 1000 571.9" style="enable-background:new 0 0 1000 571.9;" xml:space="preserve">
<style type="text/css">
	.st0{fill:#FFFFFF;}
	.st1{fill:url(#SVGID_1_);}
	.st2{fill:url(#SVGID_00000011012551193592355540000017390206245925284009_);}
	.st3{fill:url(#SVGID_00000170238256883248736090000016591784047802891396_);}
	.st4{fill:url(#SVGID_00000130647849671848068640000017067284871717134008_);}
	.st5{fill:url(#SVGID_00000098220520482167278640000013570347424186896260_);}
	.st6{fill:url(#SVGID_00000155131251968436977600000002204263262382873531_);}
	.st7{fill:url(#SVGID_00000113334679930512235320000007506512431310985608_);}
	.st8{fill:url(#SVGID_00000026151827944134783740000008225154741923170209_);}
	.st9{fill:url(#SVGID_00000006696247935099216600000015770095455640487810_);}
	.st10{fill:url(#SVGID_00000039852499775605378850000012106086539994831284_);}
	.st11{fill:url(#SVGID_00000060021628742285980600000014259964055685942433_);}
	.st12{fill:url(#SVGID_00000011715304929281113670000001969174453492413880_);}
	.st13{fill:url(#SVGID_00000016037656051065344410000017220421760152575625_);}
	.st14{fill:url(#SVGID_00000173131441539441871930000011164229426242470795_);}
	.st15{fill:url(#SVGID_00000064320948310950949620000009518280205015418534_);}
	.st16{fill:url(#SVGID_00000181769405851982861210000001901190410712491402_);}
	.st17{fill:url(#SVGID_00000062153487182025029160000012243576467301813644_);}
	.st18{fill:url(#SVGID_00000020374899201150666240000001270097787808759444_);}
	.st19{fill:url(#SVGID_00000000207558572418767890000012044249048976340099_);}
	.st20{fill:url(#SVGID_00000141449227740590797600000013711275408691593641_);}
	.st21{fill:url(#SVGID_00000106137972305664937650000011673727928349963178_);}
	.st22{fill:url(#SVGID_00000132050849711949240780000006237999936741585068_);}
	.st23{fill:url(#SVGID_00000166644896569511488440000005259384366367628464_);}
	.st24{fill:url(#SVGID_00000056392226270142718380000001643375002963508901_);}
	.st25{fill:url(#SVGID_00000087379145041678051010000005823566403209576636_);}
	.st26{fill:url(#SVGID_00000055671695579936057260000014209145341459922584_);}
	.st27{fill:url(#SVGID_00000072244283863973182490000008400412260176498343_);}
	.st28{fill:url(#SVGID_00000050622761295773907180000013331856431327606165_);}
	.st29{fill:url(#SVGID_00000086674327951445948830000010099868055217581961_);}
	.st30{fill:url(#SVGID_00000134210426352448257770000013738192808136709294_);}
	.st31{fill:url(#SVGID_00000024687457378030810060000010924040357882956948_);}
	.st32{fill:url(#SVGID_00000026165046540563427990000008982529647175493520_);}
</style>
<g>
	<g>
		<g>
			<radialGradient id="SVGID_1_" cx="437.6392" cy="354.5579" r="483.8869" gradientUnits="userSpaceOnUse">
				<stop  offset="0" style="stop-color:#B954EE"/>
				<stop  offset="1" style="stop-color:#000843"/>
			</radialGradient>
			<path class="st1" d="M499.83,313.99v59.64l-51.15,29.47c-13.32,7.67-27.89,11.37-41.96,11.33c-16.62,0-32.51-4.96-45.96-13.68
				c-13.41-8.69-24.55-21.28-31.32-36.74c-4.49-10.28-7-21.81-7-33.87V182.81l51.71-29.84v177.17c0,1.12,0.07,2.25,0.17,3.3
				c0.23,2.45,0.69,4.69,1.39,6.84c0.99,3.07,2.38,5.88,4.2,8.46c3.57,5.09,8.76,9.19,14.6,11.56c3.9,1.59,8.03,2.41,12.23,2.41
				c1.49,0,3.01-0.13,4.49-0.33v-0.13c3.11-0.13,6.28-0.99,9.12-2.64l42.59-24.58v0.2l22.01-12.65L499.83,313.99z"/>
			
				<radialGradient id="SVGID_00000044888604251549967100000015669753689878203317_" cx="437.6392" cy="354.5579" r="483.8869" gradientUnits="userSpaceOnUse">
				<stop  offset="0" style="stop-color:#B954EE"/>
				<stop  offset="1" style="stop-color:#000843"/>
			</radialGradient>
			<path style="fill:url(#SVGID_00000044888604251549967100000015669753689878203317_);" d="M709.05,139.4v28.94
				c0,52.73-28.32,101.4-74.18,127.44l-43.38,24.62v-59.44l17.84-10.14c29.67-16.85,48.01-48.34,48.01-82.47V139.4
				c0-2.94-0.23-5.72-0.66-8.39v-0.03c-0.4-2.68-1.02-5.22-1.82-7.7c-1.59-4.92-3.87-9.45-6.74-13.55
				c-5.75-8.19-13.94-14.67-23.23-18.44c-6.21-2.54-12.82-3.87-19.53-3.87c-8.46,0-16.98,2.05-25.51,6.87l-8.26,4.69v234.1
				l-51.71,29.87v-0.86l-0.17,0.1v-88.72h-0.07v-31.46l-56.73,32.74v37.3l-51.71,29.84V131.57l51.71-29.87v113.36l56.73-32.74V97.04
				c0-17.32,9.3-33.3,24.36-41.86l10.3-5.85c16.26-9.25,33.93-13.65,51.05-13.61c2.08,0,4.13,0.07,6.18,0.2
				c18.17,1.09,35.49,7,50.36,16.62c3.04,1.95,5.95,4.1,8.79,6.38c12.59,10.14,22.96,23.33,29.74,38.86
				C705.98,110.39,709.05,124.53,709.05,139.4z"/>
		</g>
		
			<radialGradient id="SVGID_00000168796998716126799600000010534527078018485177_" cx="543.325" cy="352.6833" r="126.9556" gradientUnits="userSpaceOnUse">
			<stop  offset="0" style="stop-color:#B954EE;stop-opacity:0"/>
			<stop  offset="1" style="stop-color:#000843"/>
		</radialGradient>
		<path style="fill:url(#SVGID_00000168796998716126799600000010534527078018485177_);" d="M571.61,332.01v-71.85
			c0-21.45-23.24-34.82-41.79-24.05l-10.17,5.91v120.92L571.61,332.01z"/>
		
			<radialGradient id="SVGID_00000057858276861604026090000003977867766420161933_" cx="456.152" cy="117.7381" r="118.2632" gradientUnits="userSpaceOnUse">
			<stop  offset="0" style="stop-color:#B954EE;stop-opacity:0"/>
			<stop  offset="1" style="stop-color:#000843"/>
		</radialGradient>
		<path style="fill:url(#SVGID_00000057858276861604026090000003977867766420161933_);" d="M411.23,133.77v62.96
			c0,21.45,23.24,34.82,41.79,24.05l10.17-5.91V102.84L411.23,133.77z"/>
		
			<radialGradient id="SVGID_00000143599350488333423510000001115485097816797110_" cx="452.7843" cy="326.4437" r="90.2364" gradientUnits="userSpaceOnUse">
			<stop  offset="0" style="stop-color:#B954EE;stop-opacity:0"/>
			<stop  offset="1" style="stop-color:#000843"/>
		</radialGradient>
		<path style="fill:url(#SVGID_00000143599350488333423510000001115485097816797110_);" d="M420.34,359.62
			c-2.84,1.65-6.01,2.51-9.12,2.64v0.13c-1.49,0.2-3.01,0.33-4.49,0.33c-4.2,0-8.33-0.83-12.23-2.41
			c-5.85-2.38-11.04-6.48-14.6-11.56c-1.82-2.58-3.2-5.39-4.2-8.46c-0.69-2.15-1.16-4.39-1.39-6.84v15.13h0.07
			c0.59,30.07,26.47,54.25,58.35,54.25c12.45,0,23.97-3.71,33.45-10l0.01,0.18l33.64-19.39v-59.64L420.34,359.62z"/>
		
			<radialGradient id="SVGID_00000118354635217034389480000014834213677261354668_" cx="657.6179" cy="98.1569" r="97.9096" gradientUnits="userSpaceOnUse">
			<stop  offset="0" style="stop-color:#321C71;stop-opacity:0"/>
			<stop  offset="0.2689" style="stop-color:#2A196A;stop-opacity:0.2689"/>
			<stop  offset="0.6763" style="stop-color:#151157;stop-opacity:0.6763"/>
			<stop  offset="1" style="stop-color:#000843"/>
		</radialGradient>
		<path style="fill:url(#SVGID_00000118354635217034389480000014834213677261354668_);" d="M670.69,58.91l-14.01,72.06
			c-0.4-2.68-1.02-5.22-1.82-7.7c-1.59-4.92-3.87-9.45-6.74-13.55c-5.75-8.19-13.94-14.67-23.23-18.44
			c-6.21-2.54-12.82-3.87-19.53-3.87c-8.46,0-16.98,2.05-25.51,6.87l-8.26,4.69V79.86c0-22.96,17.54-41.83,39.95-43.94
			c18.17,1.09,35.49,7,50.36,16.62C664.94,54.48,667.85,56.63,670.69,58.91z"/>
	</g>
	<g>
		<path d="M25.43,467.2h15.95v55.93h34.56v13H25.43V467.2z"/>
		<path d="M82.64,473.3c-1.77-1.64-2.66-3.68-2.66-6.1s0.89-4.46,2.66-6.11c1.77-1.64,4.07-2.46,6.89-2.46s5.12,0.79,6.89,2.36
			c1.77,1.57,2.66,3.55,2.66,5.91c0,2.56-0.89,4.68-2.66,6.35c-1.77,1.68-4.07,2.51-6.89,2.51S84.41,474.94,82.64,473.3z
			 M81.85,483.15h15.36v52.97H81.85V483.15z"/>
		<path d="M109.52,463.06h15.36v73.06h-15.36V463.06z"/>
		<path d="M137.97,473.3c-1.77-1.64-2.66-3.68-2.66-6.1s0.89-4.46,2.66-6.11c1.77-1.64,4.07-2.46,6.89-2.46
			c2.82,0,5.12,0.79,6.89,2.36c1.77,1.57,2.66,3.55,2.66,5.91c0,2.56-0.89,4.68-2.66,6.35c-1.77,1.68-4.07,2.51-6.89,2.51
			C142.04,475.76,139.74,474.94,137.97,473.3z M137.18,483.15h15.36v52.97h-15.36V483.15z"/>
		<path d="M205.13,488.22c4.4,3.91,6.6,9.8,6.6,17.68v30.23h-14.38v-6.6c-2.89,4.93-8.27,7.39-16.15,7.39
			c-4.07,0-7.6-0.69-10.59-2.07c-2.99-1.38-5.27-3.28-6.84-5.71c-1.57-2.43-2.36-5.18-2.36-8.27c0-4.92,1.85-8.8,5.56-11.62
			c3.71-2.82,9.44-4.24,17.18-4.24h12.21c0-3.35-1.02-5.92-3.05-7.73s-5.09-2.71-9.16-2.71c-2.82,0-5.6,0.45-8.32,1.33
			c-2.72,0.88-5.04,2.08-6.94,3.6l-5.51-10.73c2.89-2.03,6.35-3.61,10.39-4.73c4.04-1.11,8.19-1.67,12.46-1.67
			C194.43,482.36,200.73,484.31,205.13,488.22z M192.03,524.75c2.03-1.21,3.48-3,4.33-5.36v-5.42h-10.53c-6.3,0-9.45,2.07-9.45,6.2
			c0,1.97,0.77,3.53,2.31,4.68c1.54,1.15,3.66,1.72,6.35,1.72C187.67,526.57,190,525.96,192.03,524.75z"/>
		<path d="M271.74,488.27c4.04,3.94,6.05,9.78,6.05,17.53v30.33h-15.36v-27.96c0-4.2-0.92-7.34-2.76-9.4
			c-1.84-2.07-4.5-3.1-7.98-3.1c-3.87,0-6.96,1.2-9.26,3.6c-2.3,2.4-3.45,5.96-3.45,10.68v26.19h-15.36v-52.97h14.67v6.2
			c2.03-2.23,4.56-3.95,7.58-5.17c3.02-1.21,6.33-1.82,9.94-1.82C262.4,482.36,267.7,484.33,271.74,488.27z"/>
		<path d="M379.9,467.2v68.93h-15.95v-28.26h-31.31v28.26h-15.95V467.2h15.95v27.18h31.31V467.2H379.9z"/>
		<path d="M446.56,483.15v52.97h-14.57v-6.3c-2.04,2.3-4.47,4.06-7.29,5.27c-2.82,1.22-5.88,1.82-9.16,1.82
			c-6.96,0-12.47-2-16.54-6.01c-4.07-4-6.1-9.95-6.1-17.82v-29.93h15.36v27.67c0,8.54,3.58,12.8,10.73,12.8
			c3.68,0,6.63-1.19,8.86-3.59c2.23-2.4,3.35-5.96,3.35-10.68v-26.19H446.56z"/>
		<path d="M542.52,488.22c3.9,3.91,5.86,9.76,5.86,17.58v30.33h-15.36v-27.96c0-4.2-0.87-7.34-2.61-9.4
			c-1.74-2.07-4.22-3.1-7.43-3.1c-3.61,0-6.47,1.17-8.57,3.5c-2.1,2.33-3.15,5.79-3.15,10.39v26.58h-15.36v-27.96
			c0-8.34-3.35-12.51-10.04-12.51c-3.54,0-6.37,1.17-8.47,3.5c-2.1,2.33-3.15,5.79-3.15,10.39v26.58h-15.36v-52.97h14.67v6.1
			c1.97-2.23,4.38-3.94,7.24-5.12c2.85-1.18,5.99-1.77,9.4-1.77c3.74,0,7.12,0.74,10.14,2.21c3.02,1.48,5.45,3.63,7.29,6.45
			c2.17-2.76,4.91-4.89,8.22-6.4c3.31-1.51,6.94-2.26,10.88-2.26C533.34,482.36,538.61,484.31,542.52,488.22z"/>
		<path d="M604.95,485.76c4.04,2.26,7.2,5.45,9.5,9.55c2.3,4.1,3.45,8.88,3.45,14.33c0,5.45-1.15,10.22-3.45,14.32
			c-2.3,4.1-5.47,7.29-9.5,9.55c-4.04,2.26-8.52,3.4-13.44,3.4c-7.29,0-12.83-2.3-16.64-6.89v6.1h-14.67v-73.06h15.36v25.7
			c3.87-4.27,9.19-6.4,15.95-6.4C596.43,482.36,600.91,483.49,604.95,485.76z M598.54,520.32c2.53-2.66,3.79-6.22,3.79-10.68
			s-1.26-8.03-3.79-10.68c-2.53-2.66-5.76-3.99-9.7-3.99s-7.17,1.33-9.7,3.99c-2.53,2.66-3.79,6.22-3.79,10.68s1.26,8.02,3.79,10.68
			c2.53,2.66,5.76,3.98,9.7,3.98S596.02,522.98,598.54,520.32z"/>
		<path d="M626.16,463.06h15.36v73.06h-15.36V463.06z"/>
		<path d="M664.02,533.42c-4.43-2.33-7.89-5.56-10.39-9.7s-3.74-8.83-3.74-14.08c0-5.25,1.25-9.95,3.74-14.08
			c2.49-4.14,5.96-7.37,10.39-9.7c4.43-2.33,9.44-3.49,15.02-3.49c5.58,0,10.57,1.16,14.97,3.49c4.4,2.33,7.84,5.56,10.34,9.7
			c2.49,4.14,3.74,8.83,3.74,14.08c0,5.25-1.25,9.95-3.74,14.08c-2.5,4.14-5.94,7.37-10.34,9.7c-4.4,2.33-9.39,3.49-14.97,3.49
			C673.46,536.91,668.45,535.75,664.02,533.42z M688.74,520.32c2.53-2.66,3.79-6.22,3.79-10.68s-1.26-8.03-3.79-10.68
			c-2.53-2.66-5.76-3.99-9.7-3.99c-3.94,0-7.19,1.33-9.75,3.99s-3.84,6.22-3.84,10.68s1.28,8.02,3.84,10.68
			c2.56,2.66,5.81,3.98,9.75,3.98C682.98,524.31,686.21,522.98,688.74,520.32z"/>
		<path d="M750.53,533.56c-1.51,1.12-3.37,1.95-5.56,2.51c-2.2,0.56-4.52,0.84-6.94,0.84c-6.3,0-11.18-1.61-14.62-4.83
			c-3.45-3.22-5.17-7.94-5.17-14.18v-21.76h-8.17v-11.82h8.17v-12.9h15.36v12.9h13.19v11.82h-13.19v21.56
			c0,2.23,0.57,3.95,1.72,5.17c1.15,1.22,2.77,1.82,4.87,1.82c2.43,0,4.5-0.65,6.2-1.97L750.53,533.56z"/>
		<path d="M784.2,467.2h31.31c7.48,0,14.1,1.43,19.84,4.28c5.74,2.86,10.21,6.88,13.39,12.06c3.18,5.18,4.77,11.22,4.77,18.11
			c0,6.89-1.59,12.94-4.77,18.12c-3.18,5.19-7.65,9.21-13.39,12.06c-5.74,2.86-12.36,4.29-19.84,4.29H784.2V467.2z M814.72,523.03
			c6.89,0,12.39-1.92,16.49-5.76c4.1-3.84,6.15-9.04,6.15-15.61c0-6.56-2.05-11.76-6.15-15.61c-4.1-3.84-9.6-5.76-16.49-5.76h-14.57
			v42.74H814.72z"/>
		<path d="M914.07,513.97H874c0.72,3.29,2.43,5.88,5.12,7.78c2.69,1.91,6.04,2.86,10.04,2.86c2.76,0,5.2-0.41,7.34-1.23
			c2.13-0.82,4.12-2.12,5.96-3.89l8.17,8.86c-4.99,5.71-12.28,8.57-21.86,8.57c-5.97,0-11.26-1.16-15.85-3.49
			c-4.6-2.33-8.14-5.56-10.63-9.7s-3.74-8.83-3.74-14.08c0-5.19,1.23-9.86,3.69-14.03c2.46-4.17,5.84-7.42,10.14-9.75
			c4.3-2.33,9.11-3.49,14.43-3.49c5.19,0,9.88,1.11,14.08,3.35c4.2,2.23,7.5,5.43,9.9,9.6c2.39,4.17,3.59,9.01,3.59,14.52
			C914.37,510.03,914.27,511.41,914.07,513.97z M878.13,496.93c-2.36,1.97-3.81,4.66-4.33,8.07h26.09
			c-0.53-3.35-1.97-6.02-4.33-8.02c-2.36-2-5.25-3-8.67-3C883.42,493.98,880.5,494.96,878.13,496.93z"/>
		<path d="M974.24,483.15l-22.35,52.97h-15.85l-22.25-52.97h15.85l14.67,36.03l15.16-36.03H974.24z"/>
	</g>
</g>
</svg>
